<mxfile host="Electron" modified="2023-07-29T17:52:36.760Z" agent="Mozilla/5.0 (Macintosh; Intel Mac OS X 10_15_7) AppleWebKit/537.36 (KHTML, like Gecko) draw.io/21.1.2 Chrome/106.0.5249.199 Electron/21.4.3 Safari/537.36" etag="xt9NdaQzKITVqFNnlXvc" version="21.1.2" type="device">
  <diagram name="Page-1" id="4DaYKY6kidr2x0Ut42gU">
    <mxGraphModel dx="1908" dy="627" grid="1" gridSize="10" guides="1" tooltips="1" connect="1" arrows="1" fold="1" page="1" pageScale="1" pageWidth="1169" pageHeight="827" math="0" shadow="0">
      <root>
        <mxCell id="0" />
        <mxCell id="1" parent="0" />
        <mxCell id="TcA7Z7focR9E8mXINfIP-137" value="" style="whiteSpace=wrap;html=1;aspect=fixed;" vertex="1" parent="1">
          <mxGeometry x="110" y="1630" width="1080" height="1080" as="geometry" />
        </mxCell>
        <mxCell id="TcA7Z7focR9E8mXINfIP-138" value="client" style="swimlane;fontStyle=1;align=center;verticalAlign=top;childLayout=stackLayout;horizontal=1;startSize=26;horizontalStack=0;resizeParent=1;resizeParentMax=0;resizeLast=0;collapsible=1;marginBottom=0;whiteSpace=wrap;html=1;labelBackgroundColor=none;rounded=1;" vertex="1" parent="1">
          <mxGeometry x="559.9300000000001" y="1766" width="200" height="190" as="geometry" />
        </mxCell>
        <mxCell id="TcA7Z7focR9E8mXINfIP-139" value="client_id" style="text;strokeColor=none;fillColor=none;align=left;verticalAlign=top;spacingLeft=4;spacingRight=4;overflow=hidden;rotatable=0;points=[[0,0.5],[1,0.5]];portConstraint=eastwest;whiteSpace=wrap;html=1;labelBackgroundColor=none;rounded=1;" vertex="1" parent="TcA7Z7focR9E8mXINfIP-138">
          <mxGeometry y="26" width="200" height="26" as="geometry" />
        </mxCell>
        <mxCell id="TcA7Z7focR9E8mXINfIP-140" value="FIO" style="text;strokeColor=none;fillColor=none;align=left;verticalAlign=top;spacingLeft=4;spacingRight=4;overflow=hidden;rotatable=0;points=[[0,0.5],[1,0.5]];portConstraint=eastwest;whiteSpace=wrap;html=1;labelBackgroundColor=none;rounded=1;" vertex="1" parent="TcA7Z7focR9E8mXINfIP-138">
          <mxGeometry y="52" width="200" height="26" as="geometry" />
        </mxCell>
        <mxCell id="TcA7Z7focR9E8mXINfIP-141" value="driver_number" style="text;strokeColor=none;fillColor=none;align=left;verticalAlign=top;spacingLeft=4;spacingRight=4;overflow=hidden;rotatable=0;points=[[0,0.5],[1,0.5]];portConstraint=eastwest;whiteSpace=wrap;html=1;labelBackgroundColor=none;rounded=1;" vertex="1" parent="TcA7Z7focR9E8mXINfIP-138">
          <mxGeometry y="78" width="200" height="26" as="geometry" />
        </mxCell>
        <mxCell id="TcA7Z7focR9E8mXINfIP-142" value="tel" style="text;strokeColor=none;fillColor=none;align=left;verticalAlign=top;spacingLeft=4;spacingRight=4;overflow=hidden;rotatable=0;points=[[0,0.5],[1,0.5]];portConstraint=eastwest;whiteSpace=wrap;html=1;labelBackgroundColor=none;rounded=1;" vertex="1" parent="TcA7Z7focR9E8mXINfIP-138">
          <mxGeometry y="104" width="200" height="26" as="geometry" />
        </mxCell>
        <mxCell id="TcA7Z7focR9E8mXINfIP-143" value="" style="line;strokeWidth=1;fillColor=none;align=left;verticalAlign=middle;spacingTop=-1;spacingLeft=3;spacingRight=3;rotatable=0;labelPosition=right;points=[];portConstraint=eastwest;labelBackgroundColor=none;rounded=1;" vertex="1" parent="TcA7Z7focR9E8mXINfIP-138">
          <mxGeometry y="130" width="200" height="8" as="geometry" />
        </mxCell>
        <mxCell id="TcA7Z7focR9E8mXINfIP-144" value="+ Зарегистрировать клиента" style="text;strokeColor=none;fillColor=none;align=left;verticalAlign=top;spacingLeft=4;spacingRight=4;overflow=hidden;rotatable=0;points=[[0,0.5],[1,0.5]];portConstraint=eastwest;whiteSpace=wrap;html=1;labelBackgroundColor=none;rounded=1;" vertex="1" parent="TcA7Z7focR9E8mXINfIP-138">
          <mxGeometry y="138" width="200" height="26" as="geometry" />
        </mxCell>
        <mxCell id="TcA7Z7focR9E8mXINfIP-145" value="+ Изменить данные клиента" style="text;strokeColor=none;fillColor=none;align=left;verticalAlign=top;spacingLeft=4;spacingRight=4;overflow=hidden;rotatable=0;points=[[0,0.5],[1,0.5]];portConstraint=eastwest;whiteSpace=wrap;html=1;labelBackgroundColor=none;rounded=1;" vertex="1" parent="TcA7Z7focR9E8mXINfIP-138">
          <mxGeometry y="164" width="200" height="26" as="geometry" />
        </mxCell>
        <mxCell id="TcA7Z7focR9E8mXINfIP-146" value="auto" style="swimlane;fontStyle=1;align=center;verticalAlign=top;childLayout=stackLayout;horizontal=1;startSize=26;horizontalStack=0;resizeParent=1;resizeParentMax=0;resizeLast=0;collapsible=1;marginBottom=0;whiteSpace=wrap;html=1;labelBackgroundColor=none;rounded=1;" vertex="1" parent="1">
          <mxGeometry x="265.93" y="1740" width="200" height="188" as="geometry" />
        </mxCell>
        <mxCell id="TcA7Z7focR9E8mXINfIP-147" value="auto_id" style="text;strokeColor=none;fillColor=none;align=left;verticalAlign=top;spacingLeft=4;spacingRight=4;overflow=hidden;rotatable=0;points=[[0,0.5],[1,0.5]];portConstraint=eastwest;whiteSpace=wrap;html=1;labelBackgroundColor=none;rounded=1;" vertex="1" parent="TcA7Z7focR9E8mXINfIP-146">
          <mxGeometry y="26" width="200" height="26" as="geometry" />
        </mxCell>
        <mxCell id="TcA7Z7focR9E8mXINfIP-148" value="client_id" style="text;strokeColor=none;fillColor=none;align=left;verticalAlign=top;spacingLeft=4;spacingRight=4;overflow=hidden;rotatable=0;points=[[0,0.5],[1,0.5]];portConstraint=eastwest;whiteSpace=wrap;html=1;labelBackgroundColor=none;rounded=1;" vertex="1" parent="TcA7Z7focR9E8mXINfIP-146">
          <mxGeometry y="52" width="200" height="26" as="geometry" />
        </mxCell>
        <mxCell id="TcA7Z7focR9E8mXINfIP-149" value="reg_number" style="text;strokeColor=none;fillColor=none;align=left;verticalAlign=top;spacingLeft=4;spacingRight=4;overflow=hidden;rotatable=0;points=[[0,0.5],[1,0.5]];portConstraint=eastwest;whiteSpace=wrap;html=1;labelBackgroundColor=none;rounded=1;" vertex="1" parent="TcA7Z7focR9E8mXINfIP-146">
          <mxGeometry y="78" width="200" height="26" as="geometry" />
        </mxCell>
        <mxCell id="TcA7Z7focR9E8mXINfIP-150" value="VIN" style="text;strokeColor=none;fillColor=none;align=left;verticalAlign=top;spacingLeft=4;spacingRight=4;overflow=hidden;rotatable=0;points=[[0,0.5],[1,0.5]];portConstraint=eastwest;whiteSpace=wrap;html=1;labelBackgroundColor=none;rounded=1;" vertex="1" parent="TcA7Z7focR9E8mXINfIP-146">
          <mxGeometry y="104" width="200" height="26" as="geometry" />
        </mxCell>
        <mxCell id="TcA7Z7focR9E8mXINfIP-151" value="" style="line;strokeWidth=1;fillColor=none;align=left;verticalAlign=middle;spacingTop=-1;spacingLeft=3;spacingRight=3;rotatable=0;labelPosition=right;points=[];portConstraint=eastwest;labelBackgroundColor=none;rounded=1;" vertex="1" parent="TcA7Z7focR9E8mXINfIP-146">
          <mxGeometry y="130" width="200" height="8" as="geometry" />
        </mxCell>
        <mxCell id="TcA7Z7focR9E8mXINfIP-152" value="+ Закрепить авто за клиентом" style="text;strokeColor=none;fillColor=none;align=left;verticalAlign=top;spacingLeft=4;spacingRight=4;overflow=hidden;rotatable=0;points=[[0,0.5],[1,0.5]];portConstraint=eastwest;whiteSpace=wrap;html=1;labelBackgroundColor=none;rounded=1;" vertex="1" parent="TcA7Z7focR9E8mXINfIP-146">
          <mxGeometry y="138" width="200" height="24" as="geometry" />
        </mxCell>
        <mxCell id="TcA7Z7focR9E8mXINfIP-153" value="+ Изменить данные авто" style="text;strokeColor=none;fillColor=none;align=left;verticalAlign=top;spacingLeft=4;spacingRight=4;overflow=hidden;rotatable=0;points=[[0,0.5],[1,0.5]];portConstraint=eastwest;whiteSpace=wrap;html=1;labelBackgroundColor=none;rounded=1;" vertex="1" parent="TcA7Z7focR9E8mXINfIP-146">
          <mxGeometry y="162" width="200" height="26" as="geometry" />
        </mxCell>
        <mxCell id="TcA7Z7focR9E8mXINfIP-154" style="edgeStyle=orthogonalEdgeStyle;rounded=1;orthogonalLoop=1;jettySize=auto;html=1;entryX=1;entryY=0.5;entryDx=0;entryDy=0;endArrow=none;endFill=0;labelBackgroundColor=none;fontColor=default;" edge="1" parent="1" source="TcA7Z7focR9E8mXINfIP-139" target="TcA7Z7focR9E8mXINfIP-148">
          <mxGeometry relative="1" as="geometry" />
        </mxCell>
        <mxCell id="TcA7Z7focR9E8mXINfIP-155" value="1" style="text;html=1;align=center;verticalAlign=middle;resizable=0;points=[];autosize=1;strokeColor=none;fillColor=none;labelBackgroundColor=none;rounded=1;" vertex="1" parent="1">
          <mxGeometry x="535.9300000000001" y="1781" width="30" height="30" as="geometry" />
        </mxCell>
        <mxCell id="TcA7Z7focR9E8mXINfIP-156" value="*" style="text;html=1;align=center;verticalAlign=middle;resizable=0;points=[];autosize=1;strokeColor=none;fillColor=none;labelBackgroundColor=none;rounded=1;" vertex="1" parent="1">
          <mxGeometry x="457.93" y="1802" width="30" height="30" as="geometry" />
        </mxCell>
        <mxCell id="TcA7Z7focR9E8mXINfIP-157" value="appointment" style="swimlane;fontStyle=1;align=center;verticalAlign=top;childLayout=stackLayout;horizontal=1;startSize=26;horizontalStack=0;resizeParent=1;resizeParentMax=0;resizeLast=0;collapsible=1;marginBottom=0;whiteSpace=wrap;html=1;labelBackgroundColor=none;rounded=1;" vertex="1" parent="1">
          <mxGeometry x="859.9300000000001" y="1740" width="200" height="266" as="geometry" />
        </mxCell>
        <mxCell id="TcA7Z7focR9E8mXINfIP-158" value="appointment_id" style="text;strokeColor=none;fillColor=none;align=left;verticalAlign=top;spacingLeft=4;spacingRight=4;overflow=hidden;rotatable=0;points=[[0,0.5],[1,0.5]];portConstraint=eastwest;whiteSpace=wrap;html=1;labelBackgroundColor=none;rounded=1;" vertex="1" parent="TcA7Z7focR9E8mXINfIP-157">
          <mxGeometry y="26" width="200" height="26" as="geometry" />
        </mxCell>
        <mxCell id="TcA7Z7focR9E8mXINfIP-159" value="client_id" style="text;strokeColor=none;fillColor=none;align=left;verticalAlign=top;spacingLeft=4;spacingRight=4;overflow=hidden;rotatable=0;points=[[0,0.5],[1,0.5]];portConstraint=eastwest;whiteSpace=wrap;html=1;labelBackgroundColor=none;rounded=1;" vertex="1" parent="TcA7Z7focR9E8mXINfIP-157">
          <mxGeometry y="52" width="200" height="26" as="geometry" />
        </mxCell>
        <mxCell id="TcA7Z7focR9E8mXINfIP-160" value="STO_id" style="text;strokeColor=none;fillColor=none;align=left;verticalAlign=top;spacingLeft=4;spacingRight=4;overflow=hidden;rotatable=0;points=[[0,0.5],[1,0.5]];portConstraint=eastwest;whiteSpace=wrap;html=1;labelBackgroundColor=none;rounded=1;" vertex="1" parent="TcA7Z7focR9E8mXINfIP-157">
          <mxGeometry y="78" width="200" height="26" as="geometry" />
        </mxCell>
        <mxCell id="TcA7Z7focR9E8mXINfIP-161" value="date" style="text;strokeColor=none;fillColor=none;align=left;verticalAlign=top;spacingLeft=4;spacingRight=4;overflow=hidden;rotatable=0;points=[[0,0.5],[1,0.5]];portConstraint=eastwest;whiteSpace=wrap;html=1;labelBackgroundColor=none;rounded=1;" vertex="1" parent="TcA7Z7focR9E8mXINfIP-157">
          <mxGeometry y="104" width="200" height="26" as="geometry" />
        </mxCell>
        <mxCell id="TcA7Z7focR9E8mXINfIP-162" value="comment" style="text;strokeColor=none;fillColor=none;align=left;verticalAlign=top;spacingLeft=4;spacingRight=4;overflow=hidden;rotatable=0;points=[[0,0.5],[1,0.5]];portConstraint=eastwest;whiteSpace=wrap;html=1;labelBackgroundColor=none;rounded=1;" vertex="1" parent="TcA7Z7focR9E8mXINfIP-157">
          <mxGeometry y="130" width="200" height="26" as="geometry" />
        </mxCell>
        <mxCell id="TcA7Z7focR9E8mXINfIP-163" value="status" style="text;strokeColor=none;fillColor=none;align=left;verticalAlign=top;spacingLeft=4;spacingRight=4;overflow=hidden;rotatable=0;points=[[0,0.5],[1,0.5]];portConstraint=eastwest;whiteSpace=wrap;html=1;labelBackgroundColor=none;rounded=1;" vertex="1" parent="TcA7Z7focR9E8mXINfIP-157">
          <mxGeometry y="156" width="200" height="26" as="geometry" />
        </mxCell>
        <mxCell id="TcA7Z7focR9E8mXINfIP-164" value="" style="line;strokeWidth=1;fillColor=none;align=left;verticalAlign=middle;spacingTop=-1;spacingLeft=3;spacingRight=3;rotatable=0;labelPosition=right;points=[];portConstraint=eastwest;labelBackgroundColor=none;rounded=1;" vertex="1" parent="TcA7Z7focR9E8mXINfIP-157">
          <mxGeometry y="182" width="200" height="8" as="geometry" />
        </mxCell>
        <mxCell id="TcA7Z7focR9E8mXINfIP-165" value="+ Записать клиента на прием" style="text;strokeColor=none;fillColor=none;align=left;verticalAlign=top;spacingLeft=4;spacingRight=4;overflow=hidden;rotatable=0;points=[[0,0.5],[1,0.5]];portConstraint=eastwest;whiteSpace=wrap;html=1;labelBackgroundColor=none;rounded=1;" vertex="1" parent="TcA7Z7focR9E8mXINfIP-157">
          <mxGeometry y="190" width="200" height="24" as="geometry" />
        </mxCell>
        <mxCell id="TcA7Z7focR9E8mXINfIP-166" value="+ Описать первичную проблему" style="text;strokeColor=none;fillColor=none;align=left;verticalAlign=top;spacingLeft=4;spacingRight=4;overflow=hidden;rotatable=0;points=[[0,0.5],[1,0.5]];portConstraint=eastwest;whiteSpace=wrap;html=1;labelBackgroundColor=none;rounded=1;" vertex="1" parent="TcA7Z7focR9E8mXINfIP-157">
          <mxGeometry y="214" width="200" height="26" as="geometry" />
        </mxCell>
        <mxCell id="TcA7Z7focR9E8mXINfIP-167" value="+ Отменить запись" style="text;strokeColor=none;fillColor=none;align=left;verticalAlign=top;spacingLeft=4;spacingRight=4;overflow=hidden;rotatable=0;points=[[0,0.5],[1,0.5]];portConstraint=eastwest;whiteSpace=wrap;html=1;labelBackgroundColor=none;rounded=1;" vertex="1" parent="TcA7Z7focR9E8mXINfIP-157">
          <mxGeometry y="240" width="200" height="26" as="geometry" />
        </mxCell>
        <mxCell id="TcA7Z7focR9E8mXINfIP-168" style="edgeStyle=orthogonalEdgeStyle;rounded=1;orthogonalLoop=1;jettySize=auto;html=1;entryX=1;entryY=0.5;entryDx=0;entryDy=0;endArrow=none;endFill=0;labelBackgroundColor=none;fontColor=default;" edge="1" parent="1" source="TcA7Z7focR9E8mXINfIP-159" target="TcA7Z7focR9E8mXINfIP-139">
          <mxGeometry relative="1" as="geometry" />
        </mxCell>
        <mxCell id="TcA7Z7focR9E8mXINfIP-169" value="1" style="text;html=1;align=center;verticalAlign=middle;resizable=0;points=[];autosize=1;strokeColor=none;fillColor=none;labelBackgroundColor=none;rounded=1;" vertex="1" parent="1">
          <mxGeometry x="752.9300000000001" y="1776" width="30" height="30" as="geometry" />
        </mxCell>
        <mxCell id="TcA7Z7focR9E8mXINfIP-170" value="*" style="text;html=1;align=center;verticalAlign=middle;resizable=0;points=[];autosize=1;strokeColor=none;fillColor=none;labelBackgroundColor=none;rounded=1;arcSize=0;" vertex="1" parent="1">
          <mxGeometry x="829.9300000000001" y="1806" width="30" height="30" as="geometry" />
        </mxCell>
        <mxCell id="TcA7Z7focR9E8mXINfIP-171" value="STO" style="swimlane;fontStyle=1;align=center;verticalAlign=top;childLayout=stackLayout;horizontal=1;startSize=26;horizontalStack=0;resizeParent=1;resizeParentMax=0;resizeLast=0;collapsible=1;marginBottom=0;whiteSpace=wrap;html=1;labelBackgroundColor=none;rounded=1;" vertex="1" parent="1">
          <mxGeometry x="859.9300000000001" y="2056" width="200" height="164" as="geometry" />
        </mxCell>
        <mxCell id="TcA7Z7focR9E8mXINfIP-172" value="STO_id" style="text;strokeColor=none;fillColor=none;align=left;verticalAlign=top;spacingLeft=4;spacingRight=4;overflow=hidden;rotatable=0;points=[[0,0.5],[1,0.5]];portConstraint=eastwest;whiteSpace=wrap;html=1;labelBackgroundColor=none;rounded=1;" vertex="1" parent="TcA7Z7focR9E8mXINfIP-171">
          <mxGeometry y="26" width="200" height="26" as="geometry" />
        </mxCell>
        <mxCell id="TcA7Z7focR9E8mXINfIP-173" value="address" style="text;strokeColor=none;fillColor=none;align=left;verticalAlign=top;spacingLeft=4;spacingRight=4;overflow=hidden;rotatable=0;points=[[0,0.5],[1,0.5]];portConstraint=eastwest;whiteSpace=wrap;html=1;labelBackgroundColor=none;rounded=1;" vertex="1" parent="TcA7Z7focR9E8mXINfIP-171">
          <mxGeometry y="52" width="200" height="26" as="geometry" />
        </mxCell>
        <mxCell id="TcA7Z7focR9E8mXINfIP-174" value="tel" style="text;strokeColor=none;fillColor=none;align=left;verticalAlign=top;spacingLeft=4;spacingRight=4;overflow=hidden;rotatable=0;points=[[0,0.5],[1,0.5]];portConstraint=eastwest;whiteSpace=wrap;html=1;labelBackgroundColor=none;rounded=1;" vertex="1" parent="TcA7Z7focR9E8mXINfIP-171">
          <mxGeometry y="78" width="200" height="26" as="geometry" />
        </mxCell>
        <mxCell id="TcA7Z7focR9E8mXINfIP-175" value="" style="line;strokeWidth=1;fillColor=none;align=left;verticalAlign=middle;spacingTop=-1;spacingLeft=3;spacingRight=3;rotatable=0;labelPosition=right;points=[];portConstraint=eastwest;labelBackgroundColor=none;rounded=1;" vertex="1" parent="TcA7Z7focR9E8mXINfIP-171">
          <mxGeometry y="104" width="200" height="8" as="geometry" />
        </mxCell>
        <mxCell id="TcA7Z7focR9E8mXINfIP-176" value="+ Зарегистрировать новое СТО" style="text;strokeColor=none;fillColor=none;align=left;verticalAlign=top;spacingLeft=4;spacingRight=4;overflow=hidden;rotatable=0;points=[[0,0.5],[1,0.5]];portConstraint=eastwest;whiteSpace=wrap;html=1;labelBackgroundColor=none;rounded=1;" vertex="1" parent="TcA7Z7focR9E8mXINfIP-171">
          <mxGeometry y="112" width="200" height="26" as="geometry" />
        </mxCell>
        <mxCell id="TcA7Z7focR9E8mXINfIP-177" value="+ Изменить данные СТО" style="text;strokeColor=none;fillColor=none;align=left;verticalAlign=top;spacingLeft=4;spacingRight=4;overflow=hidden;rotatable=0;points=[[0,0.5],[1,0.5]];portConstraint=eastwest;whiteSpace=wrap;html=1;labelBackgroundColor=none;rounded=1;" vertex="1" parent="TcA7Z7focR9E8mXINfIP-171">
          <mxGeometry y="138" width="200" height="26" as="geometry" />
        </mxCell>
        <mxCell id="TcA7Z7focR9E8mXINfIP-178" style="edgeStyle=orthogonalEdgeStyle;rounded=1;orthogonalLoop=1;jettySize=auto;html=1;entryX=1;entryY=0.5;entryDx=0;entryDy=0;exitX=1;exitY=0.5;exitDx=0;exitDy=0;endArrow=none;endFill=0;labelBackgroundColor=none;fontColor=default;" edge="1" parent="1" source="TcA7Z7focR9E8mXINfIP-172" target="TcA7Z7focR9E8mXINfIP-160">
          <mxGeometry relative="1" as="geometry">
            <Array as="points">
              <mxPoint x="1110" y="2095" />
              <mxPoint x="1110" y="1831" />
            </Array>
          </mxGeometry>
        </mxCell>
        <mxCell id="TcA7Z7focR9E8mXINfIP-179" value="*" style="text;html=1;align=center;verticalAlign=middle;resizable=0;points=[];autosize=1;strokeColor=none;fillColor=none;labelBackgroundColor=none;rounded=1;arcSize=0;" vertex="1" parent="1">
          <mxGeometry x="1059.93" y="1832" width="30" height="30" as="geometry" />
        </mxCell>
        <mxCell id="TcA7Z7focR9E8mXINfIP-180" value="1" style="text;html=1;align=center;verticalAlign=middle;resizable=0;points=[];autosize=1;strokeColor=none;fillColor=none;labelBackgroundColor=none;rounded=1;" vertex="1" parent="1">
          <mxGeometry x="1059.93" y="2067" width="30" height="30" as="geometry" />
        </mxCell>
        <mxCell id="TcA7Z7focR9E8mXINfIP-181" value="order" style="swimlane;fontStyle=1;align=center;verticalAlign=top;childLayout=stackLayout;horizontal=1;startSize=26;horizontalStack=0;resizeParent=1;resizeParentMax=0;resizeLast=0;collapsible=1;marginBottom=0;whiteSpace=wrap;html=1;labelBackgroundColor=none;rounded=1;" vertex="1" parent="1">
          <mxGeometry x="559.9300000000001" y="2004" width="200" height="266" as="geometry" />
        </mxCell>
        <mxCell id="TcA7Z7focR9E8mXINfIP-182" value="order_id" style="text;strokeColor=none;fillColor=none;align=left;verticalAlign=top;spacingLeft=4;spacingRight=4;overflow=hidden;rotatable=0;points=[[0,0.5],[1,0.5]];portConstraint=eastwest;whiteSpace=wrap;html=1;labelBackgroundColor=none;rounded=1;" vertex="1" parent="TcA7Z7focR9E8mXINfIP-181">
          <mxGeometry y="26" width="200" height="26" as="geometry" />
        </mxCell>
        <mxCell id="TcA7Z7focR9E8mXINfIP-183" value="auto_id" style="text;strokeColor=none;fillColor=none;align=left;verticalAlign=top;spacingLeft=4;spacingRight=4;overflow=hidden;rotatable=0;points=[[0,0.5],[1,0.5]];portConstraint=eastwest;whiteSpace=wrap;html=1;labelBackgroundColor=none;rounded=1;" vertex="1" parent="TcA7Z7focR9E8mXINfIP-181">
          <mxGeometry y="52" width="200" height="26" as="geometry" />
        </mxCell>
        <mxCell id="TcA7Z7focR9E8mXINfIP-184" value="STO_id" style="text;strokeColor=none;fillColor=none;align=left;verticalAlign=top;spacingLeft=4;spacingRight=4;overflow=hidden;rotatable=0;points=[[0,0.5],[1,0.5]];portConstraint=eastwest;whiteSpace=wrap;html=1;labelBackgroundColor=none;rounded=1;" vertex="1" parent="TcA7Z7focR9E8mXINfIP-181">
          <mxGeometry y="78" width="200" height="26" as="geometry" />
        </mxCell>
        <mxCell id="TcA7Z7focR9E8mXINfIP-185" value="master_id" style="text;strokeColor=none;fillColor=none;align=left;verticalAlign=top;spacingLeft=4;spacingRight=4;overflow=hidden;rotatable=0;points=[[0,0.5],[1,0.5]];portConstraint=eastwest;whiteSpace=wrap;html=1;labelBackgroundColor=none;rounded=1;" vertex="1" parent="TcA7Z7focR9E8mXINfIP-181">
          <mxGeometry y="104" width="200" height="26" as="geometry" />
        </mxCell>
        <mxCell id="TcA7Z7focR9E8mXINfIP-186" value="date" style="text;strokeColor=none;fillColor=none;align=left;verticalAlign=top;spacingLeft=4;spacingRight=4;overflow=hidden;rotatable=0;points=[[0,0.5],[1,0.5]];portConstraint=eastwest;whiteSpace=wrap;html=1;labelBackgroundColor=none;rounded=1;" vertex="1" parent="TcA7Z7focR9E8mXINfIP-181">
          <mxGeometry y="130" width="200" height="26" as="geometry" />
        </mxCell>
        <mxCell id="TcA7Z7focR9E8mXINfIP-187" value="status" style="text;strokeColor=none;fillColor=none;align=left;verticalAlign=top;spacingLeft=4;spacingRight=4;overflow=hidden;rotatable=0;points=[[0,0.5],[1,0.5]];portConstraint=eastwest;whiteSpace=wrap;html=1;labelBackgroundColor=none;rounded=1;" vertex="1" parent="TcA7Z7focR9E8mXINfIP-181">
          <mxGeometry y="156" width="200" height="26" as="geometry" />
        </mxCell>
        <mxCell id="TcA7Z7focR9E8mXINfIP-188" value="" style="line;strokeWidth=1;fillColor=none;align=left;verticalAlign=middle;spacingTop=-1;spacingLeft=3;spacingRight=3;rotatable=0;labelPosition=right;points=[];portConstraint=eastwest;labelBackgroundColor=none;rounded=1;" vertex="1" parent="TcA7Z7focR9E8mXINfIP-181">
          <mxGeometry y="182" width="200" height="8" as="geometry" />
        </mxCell>
        <mxCell id="TcA7Z7focR9E8mXINfIP-189" value="+ Создать заказ наряд&amp;nbsp;" style="text;strokeColor=none;fillColor=none;align=left;verticalAlign=top;spacingLeft=4;spacingRight=4;overflow=hidden;rotatable=0;points=[[0,0.5],[1,0.5]];portConstraint=eastwest;whiteSpace=wrap;html=1;labelBackgroundColor=none;rounded=1;" vertex="1" parent="TcA7Z7focR9E8mXINfIP-181">
          <mxGeometry y="190" width="200" height="24" as="geometry" />
        </mxCell>
        <mxCell id="TcA7Z7focR9E8mXINfIP-190" value="+ Выбрать мастера для ремонта" style="text;strokeColor=none;fillColor=none;align=left;verticalAlign=top;spacingLeft=4;spacingRight=4;overflow=hidden;rotatable=0;points=[[0,0.5],[1,0.5]];portConstraint=eastwest;whiteSpace=wrap;html=1;labelBackgroundColor=none;rounded=1;" vertex="1" parent="TcA7Z7focR9E8mXINfIP-181">
          <mxGeometry y="214" width="200" height="26" as="geometry" />
        </mxCell>
        <mxCell id="TcA7Z7focR9E8mXINfIP-191" value="+ Изменить статус заказ наряд" style="text;strokeColor=none;fillColor=none;align=left;verticalAlign=top;spacingLeft=4;spacingRight=4;overflow=hidden;rotatable=0;points=[[0,0.5],[1,0.5]];portConstraint=eastwest;whiteSpace=wrap;html=1;labelBackgroundColor=none;rounded=1;" vertex="1" parent="TcA7Z7focR9E8mXINfIP-181">
          <mxGeometry y="240" width="200" height="26" as="geometry" />
        </mxCell>
        <mxCell id="TcA7Z7focR9E8mXINfIP-192" style="edgeStyle=orthogonalEdgeStyle;rounded=1;orthogonalLoop=1;jettySize=auto;html=1;entryX=0;entryY=0.5;entryDx=0;entryDy=0;endArrow=none;endFill=0;labelBackgroundColor=none;fontColor=default;" edge="1" parent="1" source="TcA7Z7focR9E8mXINfIP-183" target="TcA7Z7focR9E8mXINfIP-147">
          <mxGeometry relative="1" as="geometry">
            <Array as="points">
              <mxPoint x="519.9300000000001" y="2069" />
              <mxPoint x="519.9300000000001" y="1990" />
              <mxPoint x="209.93" y="1990" />
              <mxPoint x="209.93" y="1779" />
            </Array>
          </mxGeometry>
        </mxCell>
        <mxCell id="TcA7Z7focR9E8mXINfIP-193" value="1" style="text;html=1;align=center;verticalAlign=middle;resizable=0;points=[];autosize=1;strokeColor=none;fillColor=none;labelBackgroundColor=none;rounded=1;" vertex="1" parent="1">
          <mxGeometry x="240.93" y="1753" width="30" height="30" as="geometry" />
        </mxCell>
        <mxCell id="TcA7Z7focR9E8mXINfIP-194" value="*" style="text;html=1;align=center;verticalAlign=middle;resizable=0;points=[];autosize=1;strokeColor=none;fillColor=none;labelBackgroundColor=none;rounded=1;" vertex="1" parent="1">
          <mxGeometry x="535.9300000000001" y="2066" width="30" height="30" as="geometry" />
        </mxCell>
        <mxCell id="TcA7Z7focR9E8mXINfIP-195" style="edgeStyle=orthogonalEdgeStyle;rounded=1;orthogonalLoop=1;jettySize=auto;html=1;entryX=0;entryY=0.5;entryDx=0;entryDy=0;endArrow=none;endFill=0;labelBackgroundColor=none;fontColor=default;" edge="1" parent="1" source="TcA7Z7focR9E8mXINfIP-184" target="TcA7Z7focR9E8mXINfIP-172">
          <mxGeometry relative="1" as="geometry" />
        </mxCell>
        <mxCell id="TcA7Z7focR9E8mXINfIP-196" value="*" style="text;html=1;align=center;verticalAlign=middle;resizable=0;points=[];autosize=1;strokeColor=none;fillColor=none;labelBackgroundColor=none;rounded=1;" vertex="1" parent="1">
          <mxGeometry x="754.9300000000001" y="2096" width="30" height="30" as="geometry" />
        </mxCell>
        <mxCell id="TcA7Z7focR9E8mXINfIP-197" value="1" style="text;html=1;align=center;verticalAlign=middle;resizable=0;points=[];autosize=1;strokeColor=none;fillColor=none;labelBackgroundColor=none;rounded=1;" vertex="1" parent="1">
          <mxGeometry x="829.9300000000001" y="2067" width="30" height="30" as="geometry" />
        </mxCell>
        <mxCell id="TcA7Z7focR9E8mXINfIP-198" value="master" style="swimlane;fontStyle=1;align=center;verticalAlign=top;childLayout=stackLayout;horizontal=1;startSize=26;horizontalStack=0;resizeParent=1;resizeParentMax=0;resizeLast=0;collapsible=1;marginBottom=0;whiteSpace=wrap;html=1;labelBackgroundColor=none;rounded=1;" vertex="1" parent="1">
          <mxGeometry x="207.93" y="2082" width="250" height="190" as="geometry" />
        </mxCell>
        <mxCell id="TcA7Z7focR9E8mXINfIP-199" value="master_id" style="text;strokeColor=none;fillColor=none;align=left;verticalAlign=top;spacingLeft=4;spacingRight=4;overflow=hidden;rotatable=0;points=[[0,0.5],[1,0.5]];portConstraint=eastwest;whiteSpace=wrap;html=1;labelBackgroundColor=none;rounded=1;" vertex="1" parent="TcA7Z7focR9E8mXINfIP-198">
          <mxGeometry y="26" width="250" height="26" as="geometry" />
        </mxCell>
        <mxCell id="TcA7Z7focR9E8mXINfIP-200" value="FIO" style="text;strokeColor=none;fillColor=none;align=left;verticalAlign=top;spacingLeft=4;spacingRight=4;overflow=hidden;rotatable=0;points=[[0,0.5],[1,0.5]];portConstraint=eastwest;whiteSpace=wrap;html=1;labelBackgroundColor=none;rounded=1;" vertex="1" parent="TcA7Z7focR9E8mXINfIP-198">
          <mxGeometry y="52" width="250" height="26" as="geometry" />
        </mxCell>
        <mxCell id="TcA7Z7focR9E8mXINfIP-201" value="STO_id" style="text;strokeColor=none;fillColor=none;align=left;verticalAlign=top;spacingLeft=4;spacingRight=4;overflow=hidden;rotatable=0;points=[[0,0.5],[1,0.5]];portConstraint=eastwest;whiteSpace=wrap;html=1;labelBackgroundColor=none;rounded=1;" vertex="1" parent="TcA7Z7focR9E8mXINfIP-198">
          <mxGeometry y="78" width="250" height="26" as="geometry" />
        </mxCell>
        <mxCell id="TcA7Z7focR9E8mXINfIP-202" value="type" style="text;strokeColor=none;fillColor=none;align=left;verticalAlign=top;spacingLeft=4;spacingRight=4;overflow=hidden;rotatable=0;points=[[0,0.5],[1,0.5]];portConstraint=eastwest;whiteSpace=wrap;html=1;labelBackgroundColor=none;rounded=1;" vertex="1" parent="TcA7Z7focR9E8mXINfIP-198">
          <mxGeometry y="104" width="250" height="26" as="geometry" />
        </mxCell>
        <mxCell id="TcA7Z7focR9E8mXINfIP-203" value="" style="line;strokeWidth=1;fillColor=none;align=left;verticalAlign=middle;spacingTop=-1;spacingLeft=3;spacingRight=3;rotatable=0;labelPosition=right;points=[];portConstraint=eastwest;labelBackgroundColor=none;rounded=1;" vertex="1" parent="TcA7Z7focR9E8mXINfIP-198">
          <mxGeometry y="130" width="250" height="8" as="geometry" />
        </mxCell>
        <mxCell id="TcA7Z7focR9E8mXINfIP-204" value="+ Зарегистрировать нового мастера" style="text;strokeColor=none;fillColor=none;align=left;verticalAlign=top;spacingLeft=4;spacingRight=4;overflow=hidden;rotatable=0;points=[[0,0.5],[1,0.5]];portConstraint=eastwest;whiteSpace=wrap;html=1;labelBackgroundColor=none;rounded=1;" vertex="1" parent="TcA7Z7focR9E8mXINfIP-198">
          <mxGeometry y="138" width="250" height="26" as="geometry" />
        </mxCell>
        <mxCell id="TcA7Z7focR9E8mXINfIP-205" value="+ Изменить данные мастера" style="text;strokeColor=none;fillColor=none;align=left;verticalAlign=top;spacingLeft=4;spacingRight=4;overflow=hidden;rotatable=0;points=[[0,0.5],[1,0.5]];portConstraint=eastwest;whiteSpace=wrap;html=1;labelBackgroundColor=none;rounded=1;" vertex="1" parent="TcA7Z7focR9E8mXINfIP-198">
          <mxGeometry y="164" width="250" height="26" as="geometry" />
        </mxCell>
        <mxCell id="TcA7Z7focR9E8mXINfIP-206" style="edgeStyle=orthogonalEdgeStyle;rounded=1;orthogonalLoop=1;jettySize=auto;html=1;entryX=0;entryY=0.5;entryDx=0;entryDy=0;endArrow=none;endFill=0;labelBackgroundColor=none;fontColor=default;" edge="1" parent="1" source="TcA7Z7focR9E8mXINfIP-199" target="TcA7Z7focR9E8mXINfIP-185">
          <mxGeometry relative="1" as="geometry" />
        </mxCell>
        <mxCell id="TcA7Z7focR9E8mXINfIP-207" value="1" style="text;html=1;align=center;verticalAlign=middle;resizable=0;points=[];autosize=1;strokeColor=none;fillColor=none;labelBackgroundColor=none;rounded=1;" vertex="1" parent="1">
          <mxGeometry x="451.93" y="2096" width="30" height="30" as="geometry" />
        </mxCell>
        <mxCell id="TcA7Z7focR9E8mXINfIP-208" value="*" style="text;html=1;align=center;verticalAlign=middle;resizable=0;points=[];autosize=1;strokeColor=none;fillColor=none;labelBackgroundColor=none;rounded=1;" vertex="1" parent="1">
          <mxGeometry x="536.9300000000001" y="2116" width="30" height="30" as="geometry" />
        </mxCell>
        <mxCell id="TcA7Z7focR9E8mXINfIP-209" value="master_works" style="swimlane;fontStyle=1;align=center;verticalAlign=top;childLayout=stackLayout;horizontal=1;startSize=26;horizontalStack=0;resizeParent=1;resizeParentMax=0;resizeLast=0;collapsible=1;marginBottom=0;whiteSpace=wrap;html=1;labelBackgroundColor=none;rounded=1;" vertex="1" parent="1">
          <mxGeometry x="207.93" y="2334" width="319" height="138" as="geometry" />
        </mxCell>
        <mxCell id="TcA7Z7focR9E8mXINfIP-210" value="master_id" style="text;strokeColor=none;fillColor=none;align=left;verticalAlign=top;spacingLeft=4;spacingRight=4;overflow=hidden;rotatable=0;points=[[0,0.5],[1,0.5]];portConstraint=eastwest;whiteSpace=wrap;html=1;labelBackgroundColor=none;rounded=1;" vertex="1" parent="TcA7Z7focR9E8mXINfIP-209">
          <mxGeometry y="26" width="319" height="26" as="geometry" />
        </mxCell>
        <mxCell id="TcA7Z7focR9E8mXINfIP-211" value="work_type_id" style="text;strokeColor=none;fillColor=none;align=left;verticalAlign=top;spacingLeft=4;spacingRight=4;overflow=hidden;rotatable=0;points=[[0,0.5],[1,0.5]];portConstraint=eastwest;whiteSpace=wrap;html=1;labelBackgroundColor=none;rounded=1;" vertex="1" parent="TcA7Z7focR9E8mXINfIP-209">
          <mxGeometry y="52" width="319" height="26" as="geometry" />
        </mxCell>
        <mxCell id="TcA7Z7focR9E8mXINfIP-212" value="" style="line;strokeWidth=1;fillColor=none;align=left;verticalAlign=middle;spacingTop=-1;spacingLeft=3;spacingRight=3;rotatable=0;labelPosition=right;points=[];portConstraint=eastwest;labelBackgroundColor=none;rounded=1;" vertex="1" parent="TcA7Z7focR9E8mXINfIP-209">
          <mxGeometry y="78" width="319" height="8" as="geometry" />
        </mxCell>
        <mxCell id="TcA7Z7focR9E8mXINfIP-213" value="+ Добавить работы которые мастер может проводить" style="text;strokeColor=none;fillColor=none;align=left;verticalAlign=top;spacingLeft=4;spacingRight=4;overflow=hidden;rotatable=0;points=[[0,0.5],[1,0.5]];portConstraint=eastwest;whiteSpace=wrap;html=1;labelBackgroundColor=none;rounded=1;" vertex="1" parent="TcA7Z7focR9E8mXINfIP-209">
          <mxGeometry y="86" width="319" height="26" as="geometry" />
        </mxCell>
        <mxCell id="TcA7Z7focR9E8mXINfIP-214" value="+ Удалить работы которые мастер может проводить" style="text;strokeColor=none;fillColor=none;align=left;verticalAlign=top;spacingLeft=4;spacingRight=4;overflow=hidden;rotatable=0;points=[[0,0.5],[1,0.5]];portConstraint=eastwest;whiteSpace=wrap;html=1;labelBackgroundColor=none;rounded=1;" vertex="1" parent="TcA7Z7focR9E8mXINfIP-209">
          <mxGeometry y="112" width="319" height="26" as="geometry" />
        </mxCell>
        <mxCell id="TcA7Z7focR9E8mXINfIP-215" style="edgeStyle=orthogonalEdgeStyle;rounded=1;orthogonalLoop=1;jettySize=auto;html=1;entryX=0;entryY=0.5;entryDx=0;entryDy=0;endArrow=none;endFill=0;labelBackgroundColor=none;fontColor=default;" edge="1" parent="1" source="TcA7Z7focR9E8mXINfIP-199" target="TcA7Z7focR9E8mXINfIP-210">
          <mxGeometry relative="1" as="geometry">
            <Array as="points">
              <mxPoint x="150" y="2121" />
              <mxPoint x="150" y="2370" />
              <mxPoint x="208" y="2370" />
            </Array>
          </mxGeometry>
        </mxCell>
        <mxCell id="TcA7Z7focR9E8mXINfIP-216" value="*" style="text;html=1;align=center;verticalAlign=middle;resizable=0;points=[];autosize=1;strokeColor=none;fillColor=none;labelBackgroundColor=none;rounded=1;" vertex="1" parent="1">
          <mxGeometry x="177.93" y="2370" width="30" height="30" as="geometry" />
        </mxCell>
        <mxCell id="TcA7Z7focR9E8mXINfIP-217" value="1" style="text;html=1;align=center;verticalAlign=middle;resizable=0;points=[];autosize=1;strokeColor=none;fillColor=none;labelBackgroundColor=none;rounded=1;" vertex="1" parent="1">
          <mxGeometry x="173.93" y="2096" width="30" height="30" as="geometry" />
        </mxCell>
        <mxCell id="TcA7Z7focR9E8mXINfIP-218" value="order_works" style="swimlane;fontStyle=1;align=center;verticalAlign=top;childLayout=stackLayout;horizontal=1;startSize=26;horizontalStack=0;resizeParent=1;resizeParentMax=0;resizeLast=0;collapsible=1;marginBottom=0;whiteSpace=wrap;html=1;labelBackgroundColor=none;rounded=1;" vertex="1" parent="1">
          <mxGeometry x="870" y="2360" width="210" height="136" as="geometry" />
        </mxCell>
        <mxCell id="TcA7Z7focR9E8mXINfIP-219" value="order_id" style="text;strokeColor=none;fillColor=none;align=left;verticalAlign=top;spacingLeft=4;spacingRight=4;overflow=hidden;rotatable=0;points=[[0,0.5],[1,0.5]];portConstraint=eastwest;whiteSpace=wrap;html=1;labelBackgroundColor=none;rounded=1;" vertex="1" parent="TcA7Z7focR9E8mXINfIP-218">
          <mxGeometry y="26" width="210" height="26" as="geometry" />
        </mxCell>
        <mxCell id="TcA7Z7focR9E8mXINfIP-220" value="work_type_id" style="text;strokeColor=none;fillColor=none;align=left;verticalAlign=top;spacingLeft=4;spacingRight=4;overflow=hidden;rotatable=0;points=[[0,0.5],[1,0.5]];portConstraint=eastwest;whiteSpace=wrap;html=1;labelBackgroundColor=none;rounded=1;" vertex="1" parent="TcA7Z7focR9E8mXINfIP-218">
          <mxGeometry y="52" width="210" height="26" as="geometry" />
        </mxCell>
        <mxCell id="TcA7Z7focR9E8mXINfIP-221" value="" style="line;strokeWidth=1;fillColor=none;align=left;verticalAlign=middle;spacingTop=-1;spacingLeft=3;spacingRight=3;rotatable=0;labelPosition=right;points=[];portConstraint=eastwest;labelBackgroundColor=none;rounded=1;" vertex="1" parent="TcA7Z7focR9E8mXINfIP-218">
          <mxGeometry y="78" width="210" height="8" as="geometry" />
        </mxCell>
        <mxCell id="TcA7Z7focR9E8mXINfIP-222" value="+ Добавить работы в заказ наряд" style="text;strokeColor=none;fillColor=none;align=left;verticalAlign=top;spacingLeft=4;spacingRight=4;overflow=hidden;rotatable=0;points=[[0,0.5],[1,0.5]];portConstraint=eastwest;whiteSpace=wrap;html=1;labelBackgroundColor=none;rounded=1;" vertex="1" parent="TcA7Z7focR9E8mXINfIP-218">
          <mxGeometry y="86" width="210" height="24" as="geometry" />
        </mxCell>
        <mxCell id="TcA7Z7focR9E8mXINfIP-223" value="+ Удалить работы из заказ наряд" style="text;strokeColor=none;fillColor=none;align=left;verticalAlign=top;spacingLeft=4;spacingRight=4;overflow=hidden;rotatable=0;points=[[0,0.5],[1,0.5]];portConstraint=eastwest;whiteSpace=wrap;html=1;labelBackgroundColor=none;rounded=1;" vertex="1" parent="TcA7Z7focR9E8mXINfIP-218">
          <mxGeometry y="110" width="210" height="26" as="geometry" />
        </mxCell>
        <mxCell id="TcA7Z7focR9E8mXINfIP-224" value="works" style="swimlane;fontStyle=1;align=center;verticalAlign=top;childLayout=stackLayout;horizontal=1;startSize=26;horizontalStack=0;resizeParent=1;resizeParentMax=0;resizeLast=0;collapsible=1;marginBottom=0;whiteSpace=wrap;html=1;labelBackgroundColor=none;rounded=1;" vertex="1" parent="1">
          <mxGeometry x="600" y="2360" width="200" height="138" as="geometry" />
        </mxCell>
        <mxCell id="TcA7Z7focR9E8mXINfIP-225" value="work_type_id" style="text;strokeColor=none;fillColor=none;align=left;verticalAlign=top;spacingLeft=4;spacingRight=4;overflow=hidden;rotatable=0;points=[[0,0.5],[1,0.5]];portConstraint=eastwest;whiteSpace=wrap;html=1;labelBackgroundColor=none;rounded=1;" vertex="1" parent="TcA7Z7focR9E8mXINfIP-224">
          <mxGeometry y="26" width="200" height="26" as="geometry" />
        </mxCell>
        <mxCell id="TcA7Z7focR9E8mXINfIP-226" value="work_type_name" style="text;strokeColor=none;fillColor=none;align=left;verticalAlign=top;spacingLeft=4;spacingRight=4;overflow=hidden;rotatable=0;points=[[0,0.5],[1,0.5]];portConstraint=eastwest;whiteSpace=wrap;html=1;labelBackgroundColor=none;rounded=1;" vertex="1" parent="TcA7Z7focR9E8mXINfIP-224">
          <mxGeometry y="52" width="200" height="26" as="geometry" />
        </mxCell>
        <mxCell id="TcA7Z7focR9E8mXINfIP-227" value="" style="line;strokeWidth=1;fillColor=none;align=left;verticalAlign=middle;spacingTop=-1;spacingLeft=3;spacingRight=3;rotatable=0;labelPosition=right;points=[];portConstraint=eastwest;labelBackgroundColor=none;rounded=1;" vertex="1" parent="TcA7Z7focR9E8mXINfIP-224">
          <mxGeometry y="78" width="200" height="8" as="geometry" />
        </mxCell>
        <mxCell id="TcA7Z7focR9E8mXINfIP-228" value="+ Добавить работы" style="text;strokeColor=none;fillColor=none;align=left;verticalAlign=top;spacingLeft=4;spacingRight=4;overflow=hidden;rotatable=0;points=[[0,0.5],[1,0.5]];portConstraint=eastwest;whiteSpace=wrap;html=1;labelBackgroundColor=none;rounded=1;" vertex="1" parent="TcA7Z7focR9E8mXINfIP-224">
          <mxGeometry y="86" width="200" height="26" as="geometry" />
        </mxCell>
        <mxCell id="TcA7Z7focR9E8mXINfIP-229" value="+ Изменить работы" style="text;strokeColor=none;fillColor=none;align=left;verticalAlign=top;spacingLeft=4;spacingRight=4;overflow=hidden;rotatable=0;points=[[0,0.5],[1,0.5]];portConstraint=eastwest;whiteSpace=wrap;html=1;labelBackgroundColor=none;rounded=1;" vertex="1" parent="TcA7Z7focR9E8mXINfIP-224">
          <mxGeometry y="112" width="200" height="26" as="geometry" />
        </mxCell>
        <mxCell id="TcA7Z7focR9E8mXINfIP-230" value="1" style="text;html=1;align=center;verticalAlign=middle;resizable=0;points=[];autosize=1;strokeColor=none;fillColor=none;labelBackgroundColor=none;rounded=1;" vertex="1" parent="1">
          <mxGeometry x="754.9300000000001" y="2018" width="30" height="30" as="geometry" />
        </mxCell>
        <mxCell id="TcA7Z7focR9E8mXINfIP-231" style="edgeStyle=orthogonalEdgeStyle;rounded=1;orthogonalLoop=1;jettySize=auto;html=1;entryX=0.169;entryY=0.667;entryDx=0;entryDy=0;entryPerimeter=0;endArrow=none;endFill=0;exitX=1;exitY=0.5;exitDx=0;exitDy=0;labelBackgroundColor=none;fontColor=default;" edge="1" parent="1" source="TcA7Z7focR9E8mXINfIP-219" target="TcA7Z7focR9E8mXINfIP-230">
          <mxGeometry relative="1" as="geometry">
            <Array as="points">
              <mxPoint x="1110" y="2399" />
              <mxPoint x="1110" y="2300" />
              <mxPoint x="820" y="2300" />
              <mxPoint x="820" y="2040" />
              <mxPoint x="760" y="2040" />
            </Array>
          </mxGeometry>
        </mxCell>
        <mxCell id="TcA7Z7focR9E8mXINfIP-232" value="*" style="text;html=1;align=center;verticalAlign=middle;resizable=0;points=[];autosize=1;strokeColor=none;fillColor=none;labelBackgroundColor=none;rounded=1;" vertex="1" parent="1">
          <mxGeometry x="1070" y="2400" width="30" height="30" as="geometry" />
        </mxCell>
        <mxCell id="TcA7Z7focR9E8mXINfIP-233" style="edgeStyle=orthogonalEdgeStyle;rounded=1;orthogonalLoop=1;jettySize=auto;html=1;entryX=1;entryY=0.5;entryDx=0;entryDy=0;endArrow=none;endFill=0;labelBackgroundColor=none;fontColor=default;" edge="1" parent="1" source="TcA7Z7focR9E8mXINfIP-220" target="TcA7Z7focR9E8mXINfIP-225">
          <mxGeometry relative="1" as="geometry" />
        </mxCell>
        <mxCell id="TcA7Z7focR9E8mXINfIP-234" style="edgeStyle=orthogonalEdgeStyle;rounded=1;orthogonalLoop=1;jettySize=auto;html=1;endArrow=none;endFill=0;labelBackgroundColor=none;fontColor=default;" edge="1" parent="1" source="TcA7Z7focR9E8mXINfIP-225" target="TcA7Z7focR9E8mXINfIP-211">
          <mxGeometry relative="1" as="geometry" />
        </mxCell>
        <mxCell id="TcA7Z7focR9E8mXINfIP-235" value="*" style="text;html=1;align=center;verticalAlign=middle;resizable=0;points=[];autosize=1;strokeColor=none;fillColor=none;labelBackgroundColor=none;rounded=1;" vertex="1" parent="1">
          <mxGeometry x="840" y="2430" width="30" height="30" as="geometry" />
        </mxCell>
        <mxCell id="TcA7Z7focR9E8mXINfIP-236" value="1" style="text;html=1;align=center;verticalAlign=middle;resizable=0;points=[];autosize=1;strokeColor=none;fillColor=none;labelBackgroundColor=none;rounded=1;" vertex="1" parent="1">
          <mxGeometry x="791.9300000000001" y="2370" width="30" height="30" as="geometry" />
        </mxCell>
        <mxCell id="TcA7Z7focR9E8mXINfIP-237" value="1" style="text;html=1;align=center;verticalAlign=middle;resizable=0;points=[];autosize=1;strokeColor=none;fillColor=none;labelBackgroundColor=none;rounded=1;" vertex="1" parent="1">
          <mxGeometry x="570" y="2370" width="30" height="30" as="geometry" />
        </mxCell>
        <mxCell id="TcA7Z7focR9E8mXINfIP-238" value="*" style="text;html=1;align=center;verticalAlign=middle;resizable=0;points=[];autosize=1;strokeColor=none;fillColor=none;labelBackgroundColor=none;rounded=1;" vertex="1" parent="1">
          <mxGeometry x="520" y="2400" width="30" height="30" as="geometry" />
        </mxCell>
      </root>
    </mxGraphModel>
  </diagram>
</mxfile>
